<svg width="60" height="60" viewBox="0 0 60 60" fill="none" xmlns="http://www.w3.org/2000/svg">
<path d="M37.2342 22.459C37.576 22.5547 37.9949 22.7665 38.2771 23.1309C38.1507 22.9186 37.9618 22.7248 37.7771 22.586C38.2046 22.8218 38.5052 23.2556 38.6736 23.6954C38.5072 23.1312 38.5201 23.2089 38.6502 23.4366C38.7729 23.6782 38.8261 24.0274 38.8309 24.0391C38.8446 24.0333 38.8232 23.6061 38.7898 23.5118C39.0305 23.9373 38.9651 25.0193 39.0721 24.3819C39.0578 24.4963 39.0836 24.7702 39.0867 24.7793C39.1417 24.7486 39.1158 24.1189 39.1463 24.2188C39.194 24.3378 39.1419 24.5083 39.1326 24.6885C39.0467 25.5421 39.2716 25.3569 39.0076 26.1114C39.0194 26.0986 39.031 26.0852 39.0428 26.0723C38.7603 26.8537 38.405 27.5193 38.0271 28.167C37.9381 28.4485 37.5687 29.1209 37.3553 29.4317C37.3146 29.493 37.087 29.7811 37.0662 29.8018C37.0294 29.8389 37.1825 29.6033 37.0965 29.6983C37.0795 29.7193 36.7215 30.2226 36.7703 30.2051C36.8124 30.1511 36.9209 29.9647 36.948 29.9375C37.1371 29.7703 36.0101 31.2934 35.9637 31.3741C35.9969 31.3463 36.0301 31.3179 36.0633 31.2901C35.9881 31.3833 35.9131 31.4763 35.8377 31.5684C35.8594 31.5248 35.8815 31.4812 35.9031 31.4375C35.8169 31.5437 35.711 31.6943 35.6277 31.7901C35.6146 31.8045 35.6258 31.7482 35.5955 31.7862C35.5655 31.8242 35.5983 31.8371 35.5584 31.8956C35.5136 31.9614 35.2705 32.2382 35.1932 32.3379C34.9056 32.7108 34.6227 33.0958 34.3133 33.4532C34.6035 33.0562 34.2713 33.4259 34.1932 33.5381C34.1764 33.5627 34.2268 33.6003 33.906 33.9629C33.6978 34.1975 33.8126 33.9237 33.5164 34.3457C33.8169 34.0833 33.5678 34.3744 33.365 34.6163C33.328 34.6609 33.0443 34.9788 32.9187 35.128C32.8756 35.1795 32.8335 35.2768 32.7771 35.3428C32.7384 35.3882 32.696 35.4115 32.6394 35.4776C32.3689 35.7937 32.0985 36.1009 31.8201 36.4024C31.9157 36.1769 31.6736 36.5149 31.6502 36.5352C31.5683 36.5942 31.8618 36.2571 31.7352 36.378C31.5626 36.5744 31.4208 36.7351 31.24 36.9375C31.3809 36.7978 31.1225 37.1634 31.0301 37.2256C31.0721 37.2389 30.8 37.4966 30.5359 37.7393L29.6941 38.6202L28.9227 37.7266C28.7573 37.5073 28.6161 37.3127 28.5613 37.2627C28.5355 37.2392 28.6606 37.4406 28.3152 37.0039C28.2775 36.956 28.3073 36.9604 28.285 36.9366C28.2714 36.9227 28.1426 36.8685 28.0975 36.7579C28.0776 36.7131 28.2971 36.9139 27.8777 36.4317C27.9861 36.6681 27.3046 35.7842 27.1834 35.6045C27.2014 35.6408 27.2206 35.6787 27.241 35.7178C27.1299 35.5421 27.0935 35.5314 27.0652 35.4942C26.9549 35.3482 26.8073 35.1268 26.7029 34.9971C26.5768 34.8403 26.5459 34.8643 26.41 34.6651C26.4382 34.7154 26.4668 34.7664 26.4949 34.8164C26.3927 34.6822 26.2993 34.5567 26.201 34.4258C26.4692 34.689 26.1562 34.3642 26.1336 34.337C26.1025 34.2996 26.1617 34.3411 26.1102 34.2784C26.1047 34.2719 26.0958 34.2941 26.0174 34.1954C25.8559 33.9915 25.9017 34.0102 25.8357 33.9239C25.8296 33.9159 25.8366 33.9546 25.7195 33.8067C25.3461 33.3325 25.7323 33.8025 25.7478 33.8184C25.7678 33.8384 25.705 33.6348 25.9891 34.0508C25.8937 33.9121 25.9079 33.8771 25.8973 33.8614C25.8878 33.848 25.7075 33.6176 25.6941 33.6016C25.5969 33.491 25.6569 33.6074 25.6365 33.587C25.6172 33.5667 25.4298 33.269 25.3269 33.2413C25.2741 33.0673 25.4311 33.2879 25.6082 33.5079C25.6427 33.533 25.4683 33.281 25.4559 33.2637C25.214 32.9386 25.3074 33.1482 25.2293 33.0967C25.1881 33.0693 25.1164 32.9142 25.1717 33.0655C24.9493 32.7703 25.1028 32.9349 25.0916 32.9131C25.0747 32.8809 24.9905 32.7868 24.9812 32.7715C24.9694 32.7509 25.0294 32.8077 24.9793 32.7295C24.9708 32.7166 24.8609 32.6108 24.9646 32.7754C24.8154 32.5635 24.8098 32.5929 24.7947 32.4942C24.6218 32.4002 24.759 32.3586 24.7225 32.2989C24.6251 32.1413 24.6022 32.2208 24.5935 32.2168C24.5367 32.1742 24.2564 31.7359 24.1756 31.6348C24.2433 31.6491 24.4113 31.9728 24.4656 32.0332C24.6457 32.2344 24.2675 31.7094 24.4285 31.8331C24.3681 31.776 24.308 31.7189 24.2478 31.6612C24.1938 31.5149 24.3283 31.6802 24.0877 31.3555C24.023 31.3203 24.2536 31.5879 24.1922 31.545C24.1558 31.5195 24.0217 31.3301 24.0115 31.3291C24.0009 31.331 24.1288 31.4975 24.0994 31.4805C24.0305 31.4395 23.6229 30.7816 23.9666 31.2588C23.8742 31.1236 23.879 31.0159 23.783 30.9082C23.7224 30.84 23.9356 31.3217 23.5193 30.6622C23.5354 30.6332 23.6979 30.918 23.7049 30.9239C23.7144 30.9305 23.7371 30.8434 23.7342 30.8331C23.7216 30.7978 23.2562 30.1494 23.1971 29.9873C23.2004 30.0676 22.8721 29.475 22.8269 29.418C22.8142 29.403 22.8309 29.4775 22.8182 29.461C22.7396 29.3589 22.5947 29.0287 22.5154 28.8848C22.427 28.7251 22.4219 28.755 22.4168 28.7461C22.379 28.6755 22.4219 28.7245 22.3982 28.6817C22.362 28.6197 22.12 28.1562 22.1072 28.1329C22.1031 28.1265 22.1203 28.2115 22.0662 28.1143C22.057 28.0962 22.0854 28.1007 21.9246 27.794C21.7366 27.4282 22.0188 28.067 21.9207 27.9248C21.8402 27.667 21.8113 27.693 21.784 27.627C21.7752 27.6048 21.7284 27.4231 21.6463 27.2305C21.708 27.3653 21.774 27.5023 21.8367 27.626C21.7856 27.5029 21.6634 27.238 21.6268 27.127C21.6084 27.0725 21.6498 27.1058 21.6043 26.9913C21.5955 26.9674 21.4937 26.8928 21.6434 27.1866C21.6316 27.2199 21.5859 27.0681 21.5545 27.0039C21.5486 26.9928 21.4992 26.9724 21.4871 26.8702C21.4908 26.8497 21.6644 27.0403 21.3875 26.4571C21.3789 26.4382 21.3864 26.5106 21.3777 26.4922C21.3709 26.4781 21.3307 26.3203 21.323 26.2979C21.3156 26.2795 21.3236 26.3671 21.3143 26.3448C21.2656 26.2288 21.2854 26.0584 21.3455 26.3038C21.33 26.2198 21.3165 26.1361 21.3055 26.0538C21.2806 26.1501 21.2631 25.933 21.243 25.8164C21.1366 25.0179 21.1726 25.5545 21.1414 25.419C21.111 25.1888 21.1794 25.3646 21.1775 24.9913C21.1777 24.9741 21.1611 25.072 21.1551 25.0762C21.1589 25.0667 21.1307 25.0242 21.1844 24.7891L21.2078 24.7041C21.1914 24.7797 21.1805 24.8526 21.1736 24.9141C21.2098 24.8598 21.2904 24.3865 21.3201 24.3536C21.4082 24.1542 21.4442 24.1211 21.4783 24.0674C21.5176 24.0191 21.5614 23.9151 21.8084 23.6924C21.8537 23.6527 21.9651 23.5842 22.074 23.5196C22.2899 23.4023 22.1474 23.4513 21.9324 23.585C21.7215 23.7108 21.5071 23.9677 21.491 23.9815C21.4804 23.9866 21.691 23.6967 21.9861 23.5274C22.2772 23.3522 22.5423 23.3022 22.5672 23.2959C22.7269 23.2607 22.079 23.4632 22.2127 23.4473C22.2286 23.4434 22.3747 23.3744 22.5926 23.3223C22.8065 23.2713 23.0243 23.248 23.2674 23.2461C23.5386 23.2439 23.7813 23.2768 23.8748 23.295C24.1552 23.3506 24.2572 23.4423 24.2752 23.3809C24.3362 23.46 24.4126 23.4381 24.4461 23.4483C24.8461 23.5825 24.8433 23.5883 25.1668 23.7266C25.2367 23.7581 25.2868 23.804 25.3123 23.8135C25.3272 23.819 25.31 23.7873 25.3816 23.8174C25.4876 23.8539 26.0169 24.1999 26.0447 24.2393C26.0772 24.2727 25.8211 24.0988 25.8582 24.1446C26.0473 24.2665 26.2235 24.385 26.4002 24.5206C26.4726 24.5765 26.4285 24.5578 26.4598 24.5821C26.4776 24.5942 26.7272 24.78 26.7185 24.7686C26.7074 24.7297 25.9107 24.1567 26.1316 24.292C26.176 24.3172 26.3028 24.4439 26.2996 24.3995C27.0094 24.9286 27.6137 25.5361 28.1658 26.1729C27.8286 25.8261 27.4637 25.4158 27.0769 25.0704C27.0248 25.0226 26.8452 24.862 26.8562 24.8946C27.1906 25.1844 27.5841 25.5581 27.8582 25.8702C27.867 25.8801 27.8231 25.8556 27.8553 25.8936C27.9163 25.9642 28.1349 26.1725 28.1629 26.2149C28.1553 26.2108 28.0411 26.1093 28.0652 26.1543C28.1307 26.2759 28.204 26.2534 28.2791 26.3418C28.3404 26.4106 28.6899 26.8877 28.7967 26.9942C28.9118 27.1032 28.5346 26.6427 28.575 26.6661C28.8446 26.9673 29.0758 27.304 29.2986 27.6104C29.3021 27.6148 29.2798 27.5602 29.3309 27.628C29.4205 27.7477 29.4233 27.7865 29.4637 27.8497C29.4944 27.8972 29.5796 28.0258 29.6326 28.1075C29.7357 27.8996 29.8356 27.7111 29.9197 27.5801C29.8166 27.76 29.7266 27.9393 29.6414 28.1221C29.652 28.1387 29.662 28.1519 29.6678 28.1622C30.0119 27.4531 30.4036 26.7694 30.8455 26.1153C30.962 25.9512 30.9219 26.0546 31.1062 25.7813C31.049 25.8462 30.9928 25.9101 30.9363 25.9766C31.0324 25.8379 31.4979 25.2404 31.576 25.1465C31.5856 25.134 31.5802 25.1009 31.7019 24.9551C31.8107 24.8263 31.8431 24.8179 31.906 24.753C31.9591 24.6985 32.0138 24.633 32.0301 24.6172C32.0424 24.6054 32.0551 24.6076 32.0848 24.5791C32.1799 24.4883 32.0847 24.5441 32.201 24.4747C32.1798 24.4981 32.1584 24.5213 32.1375 24.545C32.2509 24.4341 32.4164 24.2943 32.2566 24.4639C32.2294 24.4933 32.2464 24.4621 32.2254 24.4834C31.4353 25.3415 32.0691 24.6606 32.3533 24.3643C32.4351 24.2975 32.8731 23.8973 32.8943 23.8907C32.9173 23.8775 32.8474 23.9498 32.9568 23.8741C32.9726 23.8499 33.6195 23.3831 33.3963 23.5635C33.3479 23.5982 33.0387 23.8217 32.9695 23.8819C33.1527 23.7674 33.5433 23.4443 33.5975 23.417C33.7957 23.2975 33.2378 23.678 33.6795 23.4024C34.0257 23.2017 33.6911 23.374 33.8201 23.2891C33.8913 23.2369 34.3095 23.0563 34.2898 23.0381C34.4324 22.9727 34.3561 23.0226 34.3728 23.0166C34.3897 23.0082 34.6767 22.8871 34.7762 22.8643C34.7875 22.8615 34.756 22.8866 34.7684 22.8838C34.7923 22.8756 35.0747 22.7921 35.0906 22.7891C35.0979 22.7863 35.0258 22.7916 35.0535 22.7813C35.0856 22.7669 35.3684 22.7095 35.3855 22.7051C35.4065 22.6926 35.0557 22.7708 35.1111 22.7452C35.2731 22.7077 35.5374 22.6548 35.6463 22.6329C35.6195 22.6384 35.459 22.6609 35.4041 22.67C35.4226 22.6449 35.6973 22.6087 35.6785 22.6221C35.7176 22.6111 35.6842 22.6125 35.7205 22.6016C35.7338 22.598 35.8371 22.5895 35.8582 22.585C35.8511 22.584 35.7516 22.5837 35.7723 22.5782C35.8121 22.5643 36.1388 22.5544 36.1668 22.5596C36.2424 22.5648 35.9766 22.5724 35.9529 22.584C35.9613 22.5848 36.1756 22.5978 36.1805 22.6006C36.1933 22.6151 35.9427 22.6075 35.9715 22.6221C36.0333 22.6228 36.0957 22.6247 36.158 22.628C35.9185 22.6356 35.4812 22.6804 35.3748 22.7217C35.7183 22.6512 36.0879 22.6477 36.0877 22.6856C36.0875 22.7008 35.9389 22.7155 35.9451 22.7198C35.9687 22.7314 36.1717 22.7122 36.1824 22.7139C36.1888 22.7148 36.1922 22.716 36.1922 22.7168C36.1867 22.7229 35.8963 22.736 35.8826 22.7432C35.8588 22.7513 35.99 22.7727 35.99 22.7793C35.9843 22.7797 35.7811 22.7996 35.8504 22.8057C35.9195 22.8102 36.0951 22.8051 36.1072 22.8067C36.1411 22.8105 35.828 22.8304 35.8201 22.8379C35.8265 22.8395 35.9831 22.8409 35.9881 22.8448C35.9822 22.8485 35.8643 22.8628 35.8182 22.878C35.7824 22.8891 35.8882 22.8859 35.8709 22.8887C35.8585 22.8879 35.5656 22.9217 35.5525 22.9278C35.5323 22.933 35.6005 22.9327 35.5916 22.9366C35.5781 22.9418 35.4852 22.9534 35.4978 22.9551C35.5124 22.9524 35.8724 22.9422 35.8689 22.9551C35.8603 22.9681 35.4875 22.9751 35.8426 22.9981C35.8449 22.9981 35.9242 22.9876 35.9314 22.9873C35.9844 22.9955 35.7145 23.0285 36.0467 23.0069C35.4318 23.0711 35.9713 23.0326 35.8816 23.0655C35.8473 23.0762 35.614 23.109 35.6121 23.1123C35.6366 23.1213 35.7107 23.1012 35.7371 23.1045C35.7461 23.106 35.5447 23.1494 35.5926 23.1514C35.6182 23.1502 35.8389 23.1215 35.8475 23.1231C35.9343 23.1236 35.8302 23.1412 35.8484 23.1456C35.8612 23.1477 35.9942 23.1386 35.9978 23.1397C35.9962 23.141 35.8261 23.1689 35.7889 23.1797C35.761 23.187 35.8672 23.1826 35.8475 23.1866C35.729 23.2076 35.4756 23.2197 35.7225 23.2237C35.7372 23.2239 35.8263 23.2129 35.8318 23.2129C35.8894 23.2182 35.7206 23.2366 35.6922 23.251C35.6436 23.2735 35.8815 23.233 35.6844 23.2706C35.8356 23.2604 35.9164 23.2514 36.0926 23.2413C35.6077 23.2799 35.4493 23.3568 35.9773 23.2959C35.8092 23.3083 35.8301 23.3321 35.7801 23.3379C35.7485 23.34 35.5045 23.3575 35.6228 23.3907C35.6393 23.3935 35.78 23.3647 35.7381 23.3838C35.3902 23.4363 35.7314 23.3923 35.7322 23.3956C35.728 23.4047 34.8933 23.5904 34.7635 23.6778C34.6064 23.749 34.4821 23.8437 34.449 23.8614C34.3404 23.9198 34.4237 23.8593 34.3973 23.8682C34.3667 23.8761 34.0811 24.0764 34.0652 24.0889C34.0102 24.119 34.0465 24.0791 34.0486 24.0743C33.9691 24.1085 33.5898 24.4034 33.4871 24.4922C33.4979 24.4951 33.7061 24.328 33.5857 24.4463C33.4496 24.5829 33.4117 24.5611 33.4051 24.5616C32.7217 25.1583 32.1456 25.896 31.6473 26.6817C31.6736 26.6823 31.9939 26.1674 32.0076 26.1602C32.0611 26.1043 31.4996 26.9569 31.4363 27.0664C31.4892 26.988 31.5431 26.9091 31.5984 26.8301C31.5365 26.9862 31.3215 27.2757 31.2195 27.4922C31.1871 27.5608 31.2666 27.4396 31.2674 27.4405C31.2355 27.5226 31.1627 27.6387 31.1971 27.5411C31.1128 27.7304 31.1099 27.6993 31.035 27.8409C31.0329 27.8458 31.0728 27.7953 31.0213 27.9073C30.9951 27.9623 30.8563 28.244 30.8465 28.292C30.843 28.31 30.9582 28.1848 30.9285 28.1495C31.1004 27.8485 30.9613 28.0401 31.0223 27.9209C31.0325 27.9027 31.0275 27.9569 31.1766 27.6504C31.1811 27.7281 30.9778 28.0577 30.9529 28.1221C30.9009 28.2498 31.1721 27.7549 31.1961 27.6465C31.2025 27.7035 31.2181 27.6136 31.2801 27.503C31.3485 27.3814 31.3282 27.4385 31.3641 27.3741C31.4638 27.1976 31.403 27.2592 31.5057 27.1231C31.3681 27.2318 31.6445 26.8694 31.7293 26.7686C31.6185 26.9517 31.512 27.1371 31.409 27.3262C31.4177 27.3174 31.4266 27.3087 31.4353 27.2998C31.4072 27.3486 31.3801 27.396 31.3523 27.4454C31.3539 27.4359 31.3558 27.4261 31.3572 27.417C31.2331 27.6856 31.1834 27.7343 31.1707 27.7569C31.0275 28.024 30.8715 28.3468 30.7449 28.6289C30.7271 28.6701 30.7558 28.6518 30.6082 28.9532C30.5605 29.0523 30.5838 28.9524 30.5398 29.0645C30.5243 29.2239 30.4915 29.2083 30.4754 29.2481C30.4259 29.3723 30.4117 29.4436 30.406 29.459C30.3839 29.52 30.3502 29.6097 30.3289 29.6729L29.8953 30.9483L29.1912 29.7793C29.1429 29.7009 29.0706 29.5886 29.0193 29.5127C29.0187 29.5129 29.0537 29.5927 28.9959 29.4971C28.9747 29.4617 28.8268 29.125 28.6228 28.877C28.6661 28.9447 28.7125 29.0186 28.7557 29.0879C28.7054 28.9996 28.2902 28.4612 28.3738 28.6045C28.4287 28.6948 28.6076 28.8713 28.5916 28.917C28.4769 28.7176 27.6874 27.7458 27.6238 27.6729C27.6178 27.6633 27.6803 27.7163 27.6697 27.7012C27.6606 27.6876 27.4735 27.4758 27.451 27.4434C27.4394 27.4255 27.5284 27.5148 27.5252 27.5039C27.5197 27.4911 27.2935 27.2289 27.2635 27.2217C27.3289 27.2826 27.485 27.468 27.3894 27.3819C27.3772 27.3706 27.3286 27.2997 27.3133 27.2862C27.173 27.161 27.5488 27.5718 27.6033 27.6397C27.3594 27.3854 27.0134 26.9705 26.7156 26.7012C26.6103 26.5777 26.9018 26.8548 26.7801 26.7178C26.536 26.4468 26.6804 26.6427 26.6844 26.6534C26.6075 26.5973 26.426 26.3232 26.3846 26.3672C26.289 26.2695 26.327 26.2926 26.1766 26.1729C26.1929 26.1923 26.2091 26.2119 26.2254 26.2315C26.0444 26.1158 25.7514 25.7773 25.7771 25.7891C25.8608 25.8287 26.0261 25.997 26.0418 26.0098C26.0651 26.0284 26.1704 26.0321 26.3787 26.2901C26.5079 26.3479 26.0056 25.9294 26.2488 26.1026C26.0987 25.9654 25.4617 25.4515 25.3504 25.4151C25.338 25.4111 25.3684 25.4766 25.2137 25.3555C25.1394 25.2979 25.3318 25.4161 25.3006 25.3858C25.2531 25.339 24.8429 25.0712 24.3894 24.9053C23.9368 24.7284 23.4621 24.7015 23.3172 24.711C23.2985 24.7114 23.3043 24.6982 23.2869 24.6983H23.2859C23.2137 24.6983 23.0263 24.7388 22.9549 24.7549C23.1236 24.7391 22.8027 24.8214 22.7977 24.8467C22.7481 24.8785 22.7423 24.857 22.7225 24.8711C22.6484 24.8929 22.6647 25.2298 22.6551 25.4385C22.7031 25.4186 22.6972 25.801 22.7664 25.9942C22.8101 26.1301 22.927 26.3288 22.8758 26.128C22.9658 26.3825 23.0847 26.6233 23.2019 26.8584C23.2199 26.8944 23.1801 26.8516 23.2117 26.9131C23.2148 26.9188 23.2338 26.92 23.2625 26.9737C23.5092 27.4253 23.3662 27.2208 23.4012 27.3116C23.4216 27.3624 23.4379 27.3968 23.451 27.4229C23.3011 27.1562 23.1469 26.8552 23.1072 26.7696C23.1022 26.8544 23.4114 27.3667 23.4861 27.5147C23.4887 27.5201 23.4609 27.5122 23.4637 27.5176C23.4914 27.5742 23.7079 27.9372 23.6863 27.8497C23.6795 27.825 23.5805 27.6551 23.4725 27.462C23.5049 27.5116 23.5038 27.4631 23.5096 27.4707C23.5794 27.576 23.7259 27.8764 23.7791 27.9707C23.7916 27.9931 23.8031 27.985 23.8055 27.9883C23.8554 28.0787 23.7974 28.0634 23.8904 28.1329C23.9418 28.3213 23.7025 27.8351 23.6941 27.8858C23.6788 27.9264 24.3275 28.9417 24.3719 28.9209C24.3705 28.9271 24.3758 28.9443 24.3894 28.9766C24.4185 29.0475 24.6097 29.3264 24.6502 29.3711C24.6574 29.3779 24.6899 29.3525 24.6971 29.3623C24.717 29.3913 24.9239 29.7491 25.034 29.8614C24.9905 29.7894 24.9468 29.7173 24.9041 29.6456C25.194 30.0595 25.1619 29.9882 25.074 29.8428C25.0693 29.8359 25.0658 29.828 25.0613 29.8213C24.9935 29.7091 24.9057 29.5674 24.907 29.5635C24.9151 29.557 25.4132 30.2463 25.2859 30.1338C25.2651 30.1141 25.0517 29.7845 25.1424 29.96C25.1582 29.9911 25.3149 30.1959 25.3201 30.2081C25.3543 30.2918 25.007 29.8529 25.0232 29.9248C25.1242 30.0202 25.2148 30.1716 25.3113 30.293C25.3551 30.348 25.3829 30.3497 25.3885 30.3565C25.4698 30.459 25.4082 30.4133 25.4344 30.4483C25.4498 30.4685 25.6393 30.6474 25.5574 30.6465C26.1041 31.3006 25.7345 30.8078 25.4246 30.3887C25.5405 30.5079 25.7238 30.7752 25.8152 30.8877C25.8479 30.9279 25.847 30.8908 25.9031 30.9581C26.0175 31.0978 26.5238 31.7985 26.66 31.9795C26.5677 31.8747 26.5729 31.9214 26.6404 32.0049C26.7077 32.0879 26.679 31.9988 26.6941 32.0118C26.7115 32.0286 27.0077 32.4279 27.0652 32.4922C26.8205 32.2047 26.8528 32.2856 27.0516 32.5391C27.0168 32.5071 26.9811 32.4737 26.9471 32.4424C27.0732 32.5853 27.2919 32.9166 27.368 32.9922C27.3799 33.0041 27.3586 32.9453 27.365 32.9512C27.4307 33.0182 27.6231 33.2881 27.6375 33.294C27.6503 33.3 27.5766 33.1815 27.616 33.2159C27.6243 33.223 27.6863 33.345 27.7742 33.4405C27.8067 33.4758 27.8047 33.4407 27.8133 33.4493C27.8845 33.5203 27.82 33.4961 27.9451 33.6387C28.0369 33.7431 28.1294 33.8011 28.24 33.9502C27.8787 33.4514 28.1945 33.8584 28.3738 34.0508C28.4024 34.0812 28.4098 34.0324 28.5564 34.2334C28.1607 33.8696 28.6255 34.3721 28.7137 34.4756C28.7186 34.4818 28.7016 34.5001 28.7469 34.5538C28.7507 34.5581 28.7588 34.5409 28.8016 34.5889C29.2005 35.035 28.9359 34.7572 28.9969 34.8536C29.0215 34.8931 29.2396 35.1089 29.2879 35.1631C29.2994 35.1763 29.2815 35.1815 29.326 35.2315C29.4074 35.323 29.5013 35.4028 29.5545 35.461C29.5603 35.4675 29.5418 35.4882 29.6453 35.5918C29.6768 35.6237 29.7195 35.658 29.6814 35.6026C29.573 35.4404 29.2755 35.1684 29.1443 34.9766C29.0262 34.8044 29.4552 35.2944 29.4881 35.3311C29.4952 35.3395 29.3976 35.2493 29.4852 35.3536C29.5419 35.421 29.6471 35.5004 29.743 35.5948C29.8276 35.5384 29.9222 35.4752 29.9627 35.4239C30.0277 35.3421 29.9731 35.3366 29.9773 35.3282C29.9848 35.3151 30.0738 35.217 30.0994 35.1768C30.1289 35.1302 30.0979 35.1391 30.1492 35.0674C30.2618 34.9066 30.296 34.938 30.3113 34.9248C30.4962 34.7592 30.3766 34.7968 30.408 34.751C30.4453 34.7001 30.9149 34.1747 30.9939 34.0498C30.963 34.1028 30.9334 34.1529 30.9012 34.2071C30.9925 34.1425 31.0269 34.0245 31.0691 34.0567C31.0172 33.9851 31.2024 33.8477 31.2449 33.792C31.2614 33.7703 31.2493 33.7624 31.2703 33.7354C31.3537 33.6287 31.5399 33.4147 31.5799 33.3526C31.7441 33.0955 31.222 33.663 31.1756 33.7139C31.2583 33.6147 31.6714 33.0654 31.4412 33.2872C31.4054 33.3218 31.381 33.4152 31.365 33.4375C31.2569 33.5882 31.321 33.4527 31.3094 33.462C31.2893 33.479 31.2406 33.5917 31.2156 33.6163C31.2079 33.6236 31.2284 33.5496 31.1131 33.6914C31.1516 33.5963 31.4758 33.2296 31.5144 33.169C31.5254 33.1501 31.3875 33.221 31.7019 32.9248C31.6945 32.9249 31.687 32.9248 31.6795 32.9248C31.8228 32.7386 31.9714 32.5429 32.115 32.3526C32.1104 32.3818 32.0519 32.5048 32.1492 32.3692C32.2053 32.2907 32.1369 32.3268 32.1414 32.3194C32.1893 32.2495 33.1307 31.0174 33.2967 30.7725C33.3556 30.6895 33.4998 30.4435 33.5115 30.4258C33.5846 30.3195 33.859 29.957 33.907 29.8799C33.9373 29.8319 33.885 29.8603 33.9148 29.8194C33.9424 29.7818 33.9363 29.8371 33.9451 29.8262C34.0214 29.7367 34.4797 28.9904 34.6102 28.8301C34.5374 28.9319 34.2307 29.4912 34.2527 29.4903C34.2612 29.4839 34.3589 29.373 34.368 29.3418C34.4162 29.3119 34.4583 29.1198 34.5232 29.0459C34.5306 29.0376 34.5399 29.0963 34.6414 28.9541C34.6765 28.9048 34.7354 28.7577 34.8494 28.6436C34.9671 28.4397 35.6196 27.4456 35.6131 27.3516C35.6092 27.3532 35.5179 27.4866 35.5574 27.3799C35.6102 27.2357 35.6141 27.3941 35.7049 27.2442C35.7224 27.2175 35.9326 26.8048 35.9373 26.7813C35.9625 26.6323 35.7588 26.9866 35.7537 26.9825C35.7491 26.9645 35.8973 26.6593 35.908 26.6426C35.9172 26.632 35.8443 26.9134 35.9764 26.5987C35.9528 26.6299 35.9281 26.6609 35.9041 26.6924C35.9632 26.5431 36.006 26.5497 36.0252 26.5166C36.0848 26.4126 36.0774 26.2804 36.2283 26.1377C36.2678 26.1011 36.2552 26.186 36.2605 26.1817C36.3111 26.1384 36.2724 26.0373 36.3582 25.9805C36.3638 25.9771 36.3191 26.175 36.4529 25.8516C36.439 25.8714 36.4251 25.8921 36.4109 25.9122C36.4187 25.8665 36.5417 25.5228 36.5555 25.4844C36.6057 25.3626 36.6075 25.4837 36.6434 25.3584C36.5679 25.4237 36.6761 25.0342 36.7107 25.0733C36.6692 25.0096 36.777 24.7097 36.781 24.6055C36.7901 24.5229 36.7599 24.408 36.7596 24.3965C36.7613 24.38 36.8022 24.3789 36.8064 24.3477C36.8084 24.3331 36.7597 24.2749 36.7957 24.2686C36.8033 24.2668 36.8599 24.2295 36.8777 24.2217C36.909 24.2083 36.8795 24.2827 36.9178 24.2754C36.9591 24.2563 36.9081 24.1979 36.908 24.1983C36.9073 24.1635 36.9505 24.1381 36.9637 24.1309C36.9887 24.1059 36.9453 24.0741 36.9412 24.0694C36.9395 24.0517 36.9924 24.0529 37.0066 24.0381C37.0287 24.0184 36.9887 23.9346 37.0076 23.9356C37.0436 23.9399 37.0714 24.012 37.074 24.0166C37.1297 24.0357 37.1293 23.9409 37.1199 23.8956C37.1196 23.8829 37.157 23.8924 37.1531 23.8858C37.086 23.7822 37.0821 23.9425 37.0262 23.8965C36.9716 23.8581 37.0606 23.8629 37.0682 23.8614C37.0691 23.8574 36.9887 23.8113 36.9754 23.7911C36.9839 23.7768 37.2278 23.8325 37.243 23.8106C37.1746 23.7607 37.1071 23.7287 37.0086 23.6954C37.0236 23.6476 37.1334 23.7406 37.1414 23.7432C37.1688 23.7483 37.1198 23.6909 37.1277 23.6788C37.1339 23.6704 37.2326 23.6899 37.1658 23.6338C37.1429 23.6155 37.0631 23.6078 36.9646 23.5391C37.372 23.6653 37.1213 23.5277 37.1101 23.502C37.1033 23.4801 37.3309 23.5397 37.0711 23.4317C37.0935 23.3412 37.0886 23.4045 37.1707 23.4239C37.2637 23.4524 37.095 23.3107 37.3758 23.5127C37.3969 23.4627 37.1268 23.3218 37.1062 23.3194C37.095 23.3112 37.1668 23.3168 37.1463 23.3008C36.9077 23.1262 37.0777 23.2281 37.0135 23.1504C37.0123 23.1411 36.7166 23.0529 36.9461 23.0977C37.3411 23.1868 37.4517 23.3732 37.5838 23.3057C37.3603 23.0467 36.9359 23.0315 36.8416 23.0176C36.6879 22.9913 36.8507 22.994 36.8348 22.9834C36.8269 22.9786 36.6979 22.9592 36.7 22.9581C36.6614 22.9027 36.8046 22.9154 36.9881 22.9727C37.1597 23.0242 37.3594 23.135 37.4539 23.1856C37.4129 23.1434 37.3669 23.1027 37.3172 23.0635C37.3935 23.0977 37.465 23.1366 37.531 23.1797C37.2135 22.9623 37.5295 23.1523 37.6521 23.1514C37.68 23.1496 37.4471 23.017 37.7244 23.1602C37.5462 23.0115 37.6168 23.0397 37.4197 22.959C37.4432 22.9206 37.8798 23.1464 38.0105 23.3233C37.7892 23.0322 37.6854 23.0275 37.6326 23.0049C37.5708 22.9897 37.529 22.9594 37.2703 22.8223C37.1622 22.8239 37.4102 22.913 37.3904 22.9151C37.2968 22.8983 37.1602 22.8009 36.9275 22.836C36.8917 22.8431 37.0252 22.9132 36.8133 22.8692C36.7825 22.8627 36.675 22.8105 36.6736 22.8077C36.6937 22.7807 36.8123 22.8099 36.826 22.8008C36.8276 22.7889 36.6899 22.7739 36.6902 22.7715C36.6919 22.7357 36.8026 22.7744 36.7898 22.7618C36.7677 22.7331 36.2401 22.5777 36.9363 22.709C36.3498 22.657 36.8407 22.7143 37.0867 22.7706C37.1452 22.7834 37.1667 22.7672 37.2488 22.7881C37.347 22.8114 37.4903 22.89 37.5418 22.9161C37.6 22.9497 37.2989 22.6984 37.7615 23.0127C37.6677 22.9081 37.4809 22.8013 37.2996 22.7383C37.1323 22.6779 36.9492 22.6405 36.8143 22.6006C36.5848 22.531 36.6686 22.5202 36.824 22.5303C37.0106 22.5441 37.2558 22.6131 37.3006 22.628C37.3253 22.6347 37.2544 22.5795 37.2703 22.5831C37.2846 22.5651 37.8273 22.847 37.8699 22.8819C37.9324 22.8962 37.6922 22.7561 37.6853 22.7295C37.6888 22.6747 38.3076 23.1699 37.99 22.8741C37.7743 22.6592 37.2721 22.5368 37.2342 22.459ZM30.3016 36.4678L30.3289 36.4688C30.3259 36.4599 30.3336 36.4601 30.3406 36.459L30.2977 36.4581C30.2992 36.461 30.2996 36.4646 30.3016 36.4678ZM29.1492 36.46H29.1824C29.1849 36.4572 29.1876 36.4534 29.1912 36.4493H29.16C29.1515 36.4575 29.1493 36.4612 29.1492 36.46ZM30.2781 36.4112C30.2829 36.421 30.2851 36.4299 30.2908 36.4454L30.3543 36.4463C30.3523 36.4501 30.3337 36.4348 30.3269 36.4268C30.3225 36.4212 30.3196 36.4157 30.3172 36.4112H30.2781ZM29.1883 36.4219C29.1822 36.4283 29.1761 36.433 29.1717 36.4375H29.2019C29.2105 36.4277 29.2208 36.4157 29.2322 36.4024H29.2059C29.1986 36.4101 29.1933 36.4169 29.1883 36.4219ZM29.1248 36.4375H29.1434C29.1479 36.4275 29.1544 36.4132 29.1609 36.4014H29.1482C29.1354 36.418 29.1185 36.4396 29.1248 36.4375ZM32.0838 36.084C32.0747 36.072 31.8983 36.2546 31.9021 36.2881C31.9326 36.2526 32.086 36.095 32.0838 36.084ZM29.118 35.0801C29.0894 35.077 29.2419 35.2433 29.2439 35.2481C29.2479 35.2571 29.2287 35.3175 29.24 35.334C29.2567 35.3573 29.4428 35.5758 29.5789 35.7383C29.5859 35.7306 29.5923 35.7244 29.5965 35.7198C29.6102 35.718 29.604 35.7299 29.5887 35.75C29.5983 35.7616 29.607 35.7734 29.616 35.7842C29.6232 35.772 29.6285 35.7606 29.6316 35.7491C29.6087 35.7173 29.594 35.7068 29.5818 35.7032C29.5588 35.723 29.5578 35.7165 29.5672 35.6973C29.5636 35.6968 29.5606 35.6979 29.5584 35.6954C29.5268 35.6579 29.4745 35.5643 29.41 35.4961C29.473 35.5568 29.5257 35.6051 29.5877 35.6641C29.5897 35.6614 29.5924 35.6591 29.5945 35.6563C29.4675 35.4962 29.1384 35.0872 29.118 35.0801ZM29.6062 35.6817C29.6143 35.6894 29.6231 35.6969 29.6316 35.7051C29.6283 35.6979 29.6231 35.6907 29.616 35.6846V35.6836C29.6142 35.6814 29.6121 35.6792 29.6102 35.6768C29.6088 35.6783 29.6077 35.6801 29.6062 35.6817ZM30.0877 35.001C30.096 34.9942 30.2364 34.7857 30.2098 34.8926L30.1853 34.9317C30.1467 34.9831 30.0736 35.0617 30.0457 35.0879C30.0401 35.093 30.0333 35.0452 29.9793 35.1133C29.9375 35.1666 30.0303 35.1138 29.9402 35.211C29.8507 35.3074 29.9449 35.1559 29.9363 35.1631C29.9232 35.175 29.8061 35.3382 29.7947 35.3184C29.7861 35.3046 29.9314 35.1495 29.9666 35.1026C30.0099 35.0446 29.9335 35.0944 30.0164 35.0049C30.0693 34.9477 30.0756 35.0114 30.0877 35.001ZM30.5574 34.753C30.5248 34.7803 30.3548 35.0075 30.4256 34.9454C30.4868 34.8919 30.6083 34.7115 30.5574 34.753ZM30.5721 34.6543C30.5552 34.6724 30.2926 34.9663 30.365 34.9209C30.3926 34.9027 30.8448 34.369 30.5721 34.6543ZM29.0232 34.8067C28.9705 34.7101 29.2046 34.9882 29.1072 34.9063C29.1028 34.9023 29.0285 34.8142 29.0232 34.8067ZM28.7625 34.6426C28.7856 34.7016 28.892 34.8235 28.8768 34.7735C28.8754 34.769 28.7904 34.6517 28.7625 34.6426ZM30.699 34.75C30.6995 34.7707 30.7409 34.7109 30.7781 34.6758V34.6768C30.8202 34.6373 30.9278 34.5236 30.9803 34.4219C30.8839 34.5348 30.7901 34.6444 30.699 34.75ZM30.7625 34.2129C30.7422 34.2788 30.6074 34.4135 30.5428 34.4854C30.5645 34.426 30.6986 34.2778 30.7625 34.2129ZM28.5594 34.3653C28.5392 34.3231 28.4371 34.2407 28.4725 34.3106C28.4988 34.346 28.5581 34.3685 28.5594 34.3653ZM31.0994 34.2461C31.2426 34.1556 31.1419 34.1723 31.0389 34.2706C31.0298 34.3188 31.076 34.261 31.0994 34.2461ZM28.2439 34.0831C28.2529 34.0962 28.411 34.2951 28.4197 34.2842C28.3854 34.2277 28.1637 33.9595 28.2439 34.0831ZM30.9978 34.127C30.9752 34.1448 30.8849 34.2664 30.8953 34.2745C30.9208 34.2781 31.0343 34.099 30.9978 34.127ZM30.8719 33.9786C30.8424 34.0291 30.8673 34.0524 30.8211 34.1026C30.6731 34.2641 30.7684 34.1223 30.8719 33.9786ZM31.2107 34.1651C31.3449 34.0655 31.3115 33.9879 31.2332 34.0831C31.2027 34.1201 31.1917 34.179 31.2107 34.1651ZM28.1297 33.8653C28.1601 33.9331 28.3084 34.0713 28.281 34.0264C28.2592 33.9922 28.1 33.7985 28.1297 33.8653ZM31.0809 33.709C31.1423 33.6725 31.0079 33.8225 31.0066 33.8262C31.0062 33.8343 31.1473 33.7942 30.9158 33.9893C30.8821 34.0177 30.962 33.8849 30.9519 33.8916C30.9267 33.9132 30.9078 33.9316 30.8943 33.9473C30.9766 33.8349 31.0677 33.7169 31.0809 33.709ZM31.3894 33.8204C31.4065 33.7709 31.2433 33.9562 31.2361 33.9688C31.1917 34.0465 31.3551 33.9178 31.3894 33.8204ZM28.031 33.7706C27.9192 33.6771 28.1122 33.8993 28.1775 33.9756C28.1934 33.9709 28.0392 33.7777 28.031 33.7706ZM31.1502 33.7442C31.167 33.7486 31.0203 33.9528 30.9803 33.9405C31.0156 33.9016 31.1384 33.7431 31.1502 33.7442ZM31.7215 33.4991C31.6972 33.5133 31.5477 33.7395 31.5389 33.7471C31.525 33.7596 31.5538 33.6744 31.4695 33.7881C31.4833 33.7878 31.453 33.8717 31.4646 33.8633C31.5034 33.8316 31.7874 33.4629 31.7215 33.4991ZM31.4988 33.6817C31.5041 33.6716 31.4212 33.7063 31.4021 33.7569C31.3881 33.7953 31.4747 33.7222 31.4988 33.6817ZM27.5154 33.0381C27.5893 33.0881 27.8946 33.4881 27.8318 33.4473C27.782 33.4155 27.5562 33.1168 27.5154 33.0381ZM31.825 32.8096C31.8027 32.8033 31.6317 33.0529 31.5779 33.1055C31.5741 33.1723 31.7102 32.9452 31.7469 32.9131L31.7371 32.9854C31.739 33.0049 31.7597 32.9867 31.8406 32.8321C31.7211 32.968 31.8293 32.8162 31.825 32.8096ZM31.8689 32.7627C31.9607 32.641 31.8469 32.6911 31.8074 32.7803C31.8055 32.7857 31.8623 32.7707 31.8689 32.7627ZM27.1355 32.5186C27.1695 32.5666 27.2811 32.6908 27.2625 32.6924C27.2026 32.6237 27.1374 32.5565 27.1355 32.5186ZM27.0096 32.5801C26.977 32.5295 26.982 32.5033 26.9607 32.4844C26.9534 32.4786 26.9372 32.4882 26.9139 32.4668C26.945 32.5036 26.9777 32.5426 27.0096 32.5801ZM35.5935 31.8887C35.5714 31.9671 35.3351 32.2132 35.3621 32.1582C35.3703 32.1439 35.5973 31.8574 35.5935 31.8887ZM26.5164 31.8555C26.4551 31.7597 26.3154 31.6018 26.3631 31.6895C26.3735 31.7087 26.5035 31.8555 26.5164 31.8555ZM32.6619 31.6875C32.5975 31.7425 32.5247 31.8747 32.5682 31.8379C32.5791 31.8279 32.6759 31.6923 32.6619 31.6875ZM24.1228 31.3946C24.2083 31.5127 24.3566 31.5952 24.2439 31.4532C24.2315 31.438 24.1226 31.3757 24.1228 31.3946ZM26.24 31.5137C26.2068 31.46 26.0751 31.2968 26.1209 31.378C26.1407 31.4131 26.2211 31.5105 26.24 31.5137ZM33.6004 30.3838C33.5635 30.4524 33.2945 30.7965 33.3025 30.8096C33.3133 30.8232 33.5992 30.4238 33.6004 30.3838ZM23.326 30.2325C23.3329 30.248 23.2933 30.2662 23.2986 30.2832C23.3012 30.2918 23.4639 30.5141 23.4803 30.5459C23.4849 30.5551 23.4878 30.563 23.49 30.5684C23.4788 30.5264 23.6133 30.733 23.5965 30.7354C23.5882 30.7336 23.5023 30.5965 23.4969 30.586C23.4959 30.5836 23.4947 30.5811 23.4939 30.5791C23.4975 30.6165 23.1859 30.1301 23.2332 30.2491C23.132 30.1145 23.2761 30.2484 23.198 30.1495C23.1715 30.1157 23.1058 30.1085 23.0096 29.9043V29.9034C22.982 29.8447 23.0297 29.8998 23.0281 29.8887C23.0278 29.885 22.9394 29.6921 23.034 29.8379C23.1756 30.0547 23.0153 29.8796 23.0877 29.9971C23.0986 30.0144 23.257 30.2161 23.2557 30.2022C23.2554 30.2005 23.2087 30.1365 23.2039 30.1241C23.1856 30.0776 23.2105 30.0891 23.2078 30.0831C23.197 30.0635 22.9561 29.7264 22.9432 29.6592C22.9393 29.6417 23.3109 30.2049 23.326 30.2325ZM23.4539 30.3389C23.4969 30.4583 23.6092 30.6258 23.6131 30.5635C23.4871 30.3754 23.6017 30.6071 23.4539 30.3389ZM25.3143 30.1729C25.2562 30.0562 25.5122 30.4198 25.4129 30.3135C25.4079 30.3082 25.3181 30.18 25.3143 30.1729ZM23.0916 29.6807C23.0114 29.5832 23.1472 29.8427 23.1853 29.878C23.2032 29.8936 23.1269 29.7241 23.0916 29.6807ZM29.2381 29.7012C29.1923 29.6205 29.184 29.6425 29.1873 29.6495C29.2179 29.7086 29.2892 29.7929 29.2381 29.7012ZM22.2078 28.4268C22.2147 28.4375 22.2916 28.6148 22.3367 28.6934C22.4722 28.9288 22.4605 28.8576 22.4685 28.8711C22.4776 28.8861 22.5488 29.0455 22.5975 29.128C22.7207 29.3365 22.7827 29.414 22.9353 29.7022C22.8251 29.5511 22.8481 29.6562 22.7508 29.4737C22.7634 29.4861 22.7762 29.4984 22.7889 29.5108C22.6311 29.2686 22.4714 28.9484 22.3113 28.6543C22.2691 28.5767 22.294 28.6799 22.2449 28.5733C22.2055 28.4875 22.1793 28.3849 22.2078 28.4268ZM24.699 29.2842C24.7205 29.2947 24.8864 29.5115 24.8777 29.5332C24.8657 29.5644 24.7253 29.3278 24.699 29.2842ZM28.9305 29.4063C28.5786 28.9124 28.5779 28.8205 28.8748 29.2862C28.8786 29.2923 28.9567 29.4355 28.9305 29.4063ZM34.368 29.3418C34.36 29.3468 34.3521 29.3479 34.3435 29.3428C34.365 29.3301 34.3709 29.3318 34.368 29.3418ZM27.8602 27.8721C27.8906 27.9075 27.874 27.8621 27.907 27.9024C28.0168 28.0367 28.1014 28.1622 28.2 28.2891C28.2088 28.3005 28.1495 28.2058 28.2244 28.3028C28.2346 28.3161 28.2959 28.4217 28.3846 28.5362C28.621 28.7716 28.7214 28.9927 28.9695 29.3291C28.9609 29.3068 28.8022 29.053 28.7898 29.0352C28.5978 28.7421 28.2253 28.2429 27.9949 27.96C27.936 27.887 27.9561 27.9285 27.9305 27.8975C27.9101 27.873 27.9486 27.8886 27.8768 27.8125C27.8424 27.7763 27.9225 27.9068 27.8982 27.8838C27.8824 27.8683 27.8173 27.7767 27.7889 27.753C27.7828 27.7496 27.8392 27.8477 27.8602 27.8721ZM24.2576 28.7256C24.087 28.4168 25.0251 29.8502 24.4393 29.0479C24.4725 29.0816 24.5063 29.1157 24.5398 29.1495C24.4764 29.042 24.3893 28.9152 24.3738 28.918C24.3742 28.9144 24.3724 28.908 24.3689 28.8985C24.3651 28.8883 24.2852 28.7779 24.2576 28.7256ZM29.1521 29.2403C29.1506 29.2444 29.1498 29.2488 29.1482 29.253L29.158 29.251C29.1596 29.2469 29.1623 29.2433 29.1639 29.2393L29.1521 29.2403ZM30.2547 29.1368C30.2569 29.1407 30.2593 29.1446 30.2615 29.1485L30.2732 29.1475C30.2708 29.1433 30.2679 29.139 30.2654 29.1348L30.2547 29.1368ZM28.2869 28.4278C28.2736 28.4294 28.4008 28.586 28.4227 28.5967C28.3963 28.5606 28.293 28.4297 28.2869 28.4278ZM30.7732 28.3838C30.7807 28.3461 30.6981 28.5186 30.6795 28.5723C30.6822 28.5927 30.773 28.3866 30.7732 28.3838ZM30.741 28.5323C30.7419 28.5465 30.8345 28.356 30.8299 28.3389C30.8094 28.3834 30.7418 28.5171 30.741 28.5323ZM28.1492 28.2598C28.2419 28.412 28.1384 28.2463 28.1248 28.2627C28.1972 28.3557 28.381 28.602 28.2713 28.4229C28.2491 28.387 28.1829 28.3051 28.1492 28.2598ZM34.9939 28.2432C35.0783 28.1387 35.0831 28.2645 35.0008 28.3428C34.9903 28.3518 34.88 28.3841 34.9939 28.2432ZM22.1775 28.1329C22.1828 28.1472 22.2684 28.3051 22.2752 28.295C22.2491 28.2327 22.142 28.0392 22.1775 28.1329ZM31.4432 27.0069C31.4053 27.0587 31.3092 27.2527 31.2986 27.2989C31.2923 27.305 31.2785 27.324 31.2547 27.3584C31.2046 27.4003 30.4396 28.9387 30.9744 27.9141C30.9909 27.8835 30.9579 27.9208 31.0262 27.793C31.0308 27.7845 31.0421 27.7843 31.0564 27.7579C31.09 27.6936 31.2682 27.3768 31.2986 27.3096C31.3005 27.31 31.3042 27.3066 31.3103 27.2989C31.3654 27.2278 31.4732 26.9641 31.4432 27.0069ZM29.6219 28.1661C29.6302 28.1788 29.6389 28.1913 29.6473 28.2041C29.6533 28.1917 29.6598 28.1795 29.6658 28.167C29.6556 28.16 29.6409 28.1496 29.6326 28.1426C29.629 28.1504 29.6255 28.1583 29.6219 28.1661ZM28.0076 28.1114C28.0394 28.1498 28.1118 28.2028 28.0516 28.1231C28.0344 28.1125 27.937 28.0256 28.0076 28.1114ZM29.6111 28.1495C29.6142 28.1432 29.6178 28.1372 29.6209 28.1309C29.552 28.0404 29.5494 27.9955 29.5437 27.9854C29.5219 27.9519 29.4905 27.9238 29.4695 27.8926C29.4349 27.8412 29.4226 27.8081 29.3777 27.7432C29.3464 27.6981 29.3629 27.7517 29.3328 27.7081C29.3219 27.6917 29.2295 27.4942 29.1853 27.5039C29.1939 27.515 29.3905 27.8126 29.6111 28.1495ZM27.573 27.5684C27.613 27.6035 28.0779 28.1941 27.993 28.0577C27.9817 28.0336 27.5698 27.5196 27.573 27.5684ZM35.2644 27.8497C35.2751 27.8741 35.1938 27.9886 35.159 28.0362C35.1448 28.0233 35.2375 27.9002 35.2644 27.8497ZM29.2273 27.6143C29.2392 27.6329 29.3848 27.8376 29.3953 27.835C29.3571 27.7726 29.1616 27.5041 29.2273 27.6143ZM27.6834 27.7354C27.7091 27.7785 27.798 27.8589 27.7615 27.7959C27.7223 27.7459 27.6778 27.7259 27.6834 27.7354ZM27.4178 27.2579C27.406 27.2406 27.208 27.0461 27.2742 27.1397C27.3201 27.2045 27.3437 27.2012 27.3562 27.2149C27.3722 27.2313 27.6448 27.5758 27.4178 27.2579ZM31.5018 27.042C31.4986 27.064 31.3405 27.3198 31.3279 27.3291C31.3839 27.2285 31.4441 27.1299 31.5018 27.042ZM35.7195 27.0547C35.7175 27.0606 35.6633 27.1557 35.659 27.1612C35.5862 27.2366 35.7534 26.9398 35.7195 27.0547ZM26.9266 26.8877C26.905 26.8814 27.051 27.0262 27.0789 27.0362C27.0416 26.9937 26.9453 26.8941 26.9266 26.8877ZM31.5574 26.8311C31.5496 26.8416 31.4489 26.9987 31.4725 26.9825C31.5066 26.958 31.5914 26.7877 31.5574 26.8311ZM21.4871 26.5596C21.4742 26.5681 21.5526 26.7752 21.5525 26.7461C21.5514 26.7354 21.4963 26.5526 21.4871 26.5596ZM31.7791 26.5411C31.7904 26.5279 31.867 26.5128 31.7518 26.6524C31.7313 26.6775 31.788 26.564 31.6658 26.7452C31.7535 26.6082 31.7125 26.6213 31.7791 26.5411ZM26.4734 26.4102C26.5084 26.4466 26.8327 26.757 26.7312 26.6348C26.7152 26.6134 26.3625 26.2833 26.4734 26.4102ZM30.948 25.9102C30.9843 25.8841 30.8021 26.1374 30.7957 26.1465C30.7361 26.2186 30.8887 25.9749 30.948 25.9102ZM36.2947 25.9102C36.3122 25.9155 36.2393 26.0897 36.2312 26.1006C36.1896 26.1537 36.2482 25.9661 36.2947 25.9102ZM27.743 25.6875C27.7595 25.6868 27.8881 25.8383 27.9373 25.8897C27.9208 25.8891 27.7938 25.7375 27.743 25.6875ZM21.157 25.542C21.1591 25.402 21.2458 26.0847 21.1805 25.7706C21.1759 25.7546 21.1558 25.5547 21.157 25.542ZM25.49 25.6504C25.4615 25.5981 25.6102 25.6957 25.698 25.7754C25.7181 25.7933 25.7807 25.874 25.6873 25.8106C25.709 25.7866 25.5772 25.674 25.49 25.6504ZM36.4334 25.4805C36.4071 25.5726 36.3781 25.6682 36.3455 25.7657C36.3373 25.6976 36.4137 25.5639 36.4334 25.4805ZM36.6316 25.5157C36.5917 25.5323 36.5659 25.6793 36.5252 25.7608C36.5737 25.7354 36.6025 25.595 36.6316 25.5157ZM32.4451 25.712C32.5401 25.555 32.592 25.5577 32.5828 25.5704C32.474 25.7288 32.527 25.6204 32.5252 25.6182C32.5146 25.6272 32.4368 25.7459 32.4451 25.712ZM36.575 25.5206C36.5719 25.5238 36.5091 25.702 36.5223 25.711C36.5552 25.6319 36.6181 25.4851 36.575 25.5206ZM36.7127 25.4414C36.6819 25.4548 36.6338 25.6143 36.6111 25.6827C36.6527 25.6645 36.6807 25.5154 36.7127 25.4414ZM25.4158 25.5254C25.4569 25.5346 25.558 25.6094 25.6248 25.6592C25.6034 25.657 25.4657 25.5568 25.4158 25.5254ZM21.1062 25.1495C21.1214 25.066 21.1138 25.191 21.118 25.3389C21.1203 25.4699 21.135 25.6249 21.1404 25.6436C21.1139 25.682 21.0891 25.2094 21.1062 25.1495ZM22.7068 25.3575C22.7176 25.3838 22.7582 25.5925 22.7547 25.627C22.7298 25.5514 22.716 25.4343 22.7068 25.3575ZM25.157 25.4082C24.8298 25.24 24.9516 25.1946 25.3504 25.4805C25.3355 25.4754 25.3203 25.4708 25.3055 25.4659C25.7679 25.7916 25.3351 25.4875 25.2146 25.4219C25.1695 25.3963 25.1988 25.4306 25.158 25.4082H25.157ZM36.3943 25.3565C36.3901 25.3818 36.347 25.4797 36.3318 25.5254C36.3163 25.4593 36.4105 25.2652 36.3943 25.3565ZM36.4344 25.4776L36.4334 25.4805C36.4339 25.4786 36.4338 25.4765 36.4344 25.4747V25.4776ZM22.6785 25.1739C22.6874 25.184 22.6962 25.3322 22.6893 25.3536C22.6767 25.3088 22.6784 25.2255 22.6785 25.1739ZM36.7303 25.1182C36.6956 25.1549 36.6629 25.37 36.6824 25.3389C36.6911 25.3253 36.7511 25.0965 36.7303 25.1182ZM32.743 25.2393C32.7621 25.2239 32.7186 25.2873 32.6912 25.3164C32.6424 25.3683 32.6811 25.2897 32.743 25.2393ZM24.7478 25.1631C24.7674 25.1701 24.896 25.2496 24.9461 25.2754C24.8678 25.2541 24.623 25.116 24.7478 25.1631ZM31.7967 24.9473C31.785 24.958 31.5879 25.1857 31.5906 25.1963C31.6195 25.1622 31.9091 24.829 31.7967 24.9473ZM31.8846 24.9825C31.8392 25.0362 31.7079 25.1794 31.7088 25.1944C31.7522 25.1387 31.8835 24.9978 31.8846 24.9825ZM31.8807 24.8116C31.8782 24.8155 31.9331 24.7751 31.8387 24.8789C31.8309 24.8879 31.8022 24.893 31.6912 25.0332C31.6686 25.0619 31.6413 25.1128 31.6443 25.1104C31.7809 24.9822 32.1225 24.5318 31.8807 24.8116ZM24.4148 25.0186C24.51 25.0567 24.3958 25.0406 24.3494 25.0127C24.3321 25.0022 24.3906 25.0091 24.4148 25.0186ZM33.198 24.8887C33.2926 24.8129 32.9917 25.1089 33.0809 25.0039C33.0854 24.998 33.193 24.8923 33.198 24.8887ZM23.9158 24.8633C23.6135 24.7352 24.2095 24.8983 24.3865 24.9737C24.2091 24.9343 23.9929 24.8659 24.281 24.9864C23.8488 24.8554 24.0327 24.8938 24.0174 24.8838C23.9975 24.876 23.9285 24.8687 23.9158 24.8633ZM26.7615 24.7032C26.8256 24.7329 26.9683 24.8654 27.0603 24.9483C27.009 24.9219 26.8436 24.7705 26.7615 24.7032ZM24.2 24.8731C24.241 24.8807 24.3269 24.9269 24.2928 24.9248C24.2482 24.9217 24.1904 24.8719 24.2 24.8731ZM33.7215 24.4405C33.717 24.4433 33.7132 24.446 33.7107 24.4473C33.6777 24.4799 33.2797 24.8152 33.2586 24.8379C33.1325 24.9296 33.6631 24.46 33.6883 24.4551C33.6975 24.4495 33.704 24.446 33.7078 24.4444C33.7252 24.4241 33.8291 24.3438 33.8494 24.3438C33.8171 24.3663 33.7338 24.4321 33.7215 24.4405ZM23.5867 24.7696C23.4867 24.7343 23.9045 24.761 23.992 24.8057C23.9782 24.8111 23.5997 24.7666 23.5867 24.7696ZM26.6863 24.7774C26.7065 24.7683 26.4366 24.5677 26.531 24.6622C26.555 24.6855 26.6802 24.78 26.6863 24.7774ZM33.3621 24.6163C33.3353 24.6582 33.3124 24.6795 33.2117 24.7696C33.3557 24.6304 33.2114 24.7471 33.3621 24.6163ZM32.8562 23.9327C32.8136 23.9497 32.1854 24.5467 32.115 24.6446C32.1928 24.5566 32.8188 23.971 32.8543 23.9512C32.8618 23.9432 32.8605 23.93 32.8562 23.9327ZM37.0193 24.3604C37.0066 24.3363 36.9778 24.4315 37.0018 24.4483C37.0182 24.456 37.0286 24.3752 37.0193 24.3604ZM32.6307 24.3145C32.5667 24.354 32.5315 24.4373 32.618 24.3565C32.6438 24.3325 32.6375 24.3104 32.6307 24.3145ZM32.5633 24.0704C32.5118 24.1319 32.3473 24.2803 32.2586 24.3721C32.2365 24.3697 32.4949 24.1327 32.5633 24.0704ZM38.9412 23.5977C38.8617 23.3254 38.435 22.3789 38.95 23.3389H38.949C39.0437 23.5983 38.9578 23.4474 38.9627 23.46C39.0918 23.9919 39.0801 23.8333 39.1101 23.9151C39.1486 24.0798 39.0858 24.082 39.1248 24.3311C39.0575 23.8987 39.1017 24.3007 39.076 24.3077C38.9912 24.3803 39.0789 23.7066 38.9363 23.4512C38.924 23.4189 38.9779 23.6813 38.9412 23.5977ZM39.1385 23.9248C39.1687 23.8476 39.2097 24.2606 39.1971 24.2959C39.1969 24.318 39.1101 24.0235 39.1385 23.9248ZM26.035 24.1446C26.0469 24.1513 26.1898 24.2506 26.1951 24.2559C26.3064 24.3529 25.8903 24.0646 26.035 24.1446ZM34.283 24.0362C34.2898 24.0347 34.1257 24.1623 34.0467 24.211C33.8957 24.2994 34.2675 24.038 34.283 24.0362ZM33.2644 23.835C33.2056 23.8754 33.0365 24.004 33.0144 24.0352C33.0736 23.983 33.2457 23.8601 33.2644 23.835ZM33.9344 23.2676C33.7962 23.3441 33.6621 23.4267 33.531 23.5137C33.6782 23.4589 33.4053 23.6227 33.3016 23.6651C33.2695 23.6967 33.2379 23.7297 33.2068 23.7618C33.1222 23.7716 33.1411 23.8419 33.0066 23.9034C32.8881 24.0608 33.4248 23.5795 33.5291 23.5752C32.8842 24.0135 33.9809 23.3235 33.492 23.5733C33.8837 23.3486 33.6134 23.4858 33.6668 23.4414C33.725 23.3931 33.9527 23.2743 33.9344 23.2676ZM25.1697 23.6934C25.1566 23.6592 25.4435 23.8201 25.5398 23.8731C25.5515 23.9049 25.2748 23.7365 25.1697 23.6934ZM33.823 23.2549C33.7228 23.3347 33.6263 23.3741 33.4842 23.4678C33.4465 23.493 33.4609 23.4934 33.4568 23.4961C33.3919 23.54 33.4348 23.4993 33.3943 23.5264C33.3596 23.5413 32.8658 23.9326 32.9285 23.8682C32.9631 23.8085 33.6893 23.3106 33.823 23.2549ZM24.9734 23.7266C25.0394 23.7694 25.1519 23.7871 25.0935 23.7471C25.0289 23.7155 24.9665 23.7221 24.9734 23.7266ZM34.7576 23.7061C34.7488 23.6903 35.0585 23.5777 35.1355 23.5538C35.0566 23.5896 34.8732 23.657 34.7576 23.7061ZM37.3641 23.4258C37.4062 23.4823 37.4469 23.5459 37.4754 23.6084C37.5514 23.6057 37.466 23.5462 37.4451 23.5166C37.4267 23.4889 37.4304 23.4493 37.3641 23.4258ZM24.5926 23.4571C24.615 23.4519 24.8268 23.5312 24.8982 23.5586C24.846 23.5537 24.697 23.4923 24.5926 23.4571ZM24.491 23.5489C24.329 23.4766 24.3279 23.5201 24.451 23.5557C24.4929 23.5683 24.4955 23.552 24.491 23.5489ZM33.9666 23.3096C33.951 23.3143 33.6635 23.489 33.6844 23.4864C33.7222 23.4619 34.1412 23.225 33.9666 23.3096ZM23.2684 23.3526C23.1408 23.3521 22.9584 23.365 22.9227 23.3799C23.002 23.3684 23.168 23.3654 23.2684 23.3643C23.3169 23.3633 23.347 23.3611 23.3367 23.3526C23.3186 23.3528 23.2949 23.3524 23.2684 23.3526ZM38.5066 23.0157C38.3989 22.8363 38.6915 23.2231 38.7273 23.3584C38.7176 23.3551 38.5238 23.0261 38.5066 23.0157ZM23.2664 23.2188C23.8493 23.2225 24.0689 23.3095 24.0457 23.3047C24.0192 23.3101 23.747 23.2446 23.2664 23.2373C23.1609 23.2368 23.0493 23.24 22.9324 23.25C22.9287 23.2347 22.9246 23.2386 23.0281 23.2295C23.1113 23.2227 23.1911 23.2196 23.2664 23.2188ZM36.1834 23.2852C36.2188 23.2923 36.067 23.3019 36.0125 23.3018C35.8902 23.299 36.1704 23.2805 36.1834 23.2852ZM34.2732 23.0967C34.2431 23.106 33.9915 23.2291 33.9764 23.251C34.0981 23.1988 34.3384 23.0719 34.2732 23.0967ZM35.2732 22.8331C35.0608 22.8679 34.7223 22.9596 34.5242 23.0362C34.4674 23.0573 34.4155 23.0866 34.368 23.1065C34.2924 23.1383 34.3544 23.0989 34.3494 23.1006L34.2752 23.1348C34.2101 23.1694 34.1853 23.1971 34.3426 23.127C34.2702 23.1633 34.1988 23.2008 34.1287 23.2403C34.4037 23.1211 34.3732 23.1049 34.4529 23.0713C34.566 23.0272 34.5679 23.0575 34.5486 23.0743C34.6323 23.0186 35.033 22.8815 35.2732 22.8331ZM36.8914 23.0557C37.0112 23.0615 37.2109 23.1493 37.3152 23.1924C37.3256 23.1972 37.309 23.0887 37.4168 23.2139C37.4865 23.2825 36.988 23.0934 36.8914 23.0557ZM34.8416 23.002C34.4809 23.1355 34.6105 23.0701 34.5428 23.086C34.4016 23.1253 34.4702 23.158 34.4881 23.1534C34.5594 23.1311 34.7922 23.0218 34.8416 23.002ZM39.0184 22.8301C39.0311 22.8424 39.1612 23.0791 39.1609 23.0889C39.2521 23.3133 38.8544 22.6023 39.0184 22.8301ZM35.49 22.7266C35.259 22.747 35.0084 22.8426 34.9793 22.8516C34.9443 22.8604 34.9953 22.8312 34.9871 22.8331C34.9659 22.8338 34.5965 22.9553 34.5799 22.9668C34.5676 22.9724 34.6412 22.9683 34.5691 23.003C34.7055 22.9208 35.3998 22.7521 35.4383 22.7569C35.4665 22.7512 35.2487 22.7609 35.5867 22.7227L35.49 22.7266ZM34.8699 22.8223C34.6946 22.8648 34.3358 23.0274 34.4764 22.9434C34.5477 22.9012 34.6043 22.8979 34.6141 22.8946C34.7095 22.8607 34.9104 22.7967 34.8699 22.8223ZM34.8894 22.8731C34.9851 22.8533 34.726 22.9337 34.6629 22.9551C34.5229 22.9965 34.8711 22.8741 34.8894 22.8731ZM35.1199 22.7217C35.2845 22.6886 34.5568 22.8898 34.5174 22.918C34.5598 22.8848 35.0952 22.7171 35.1199 22.7217ZM34.618 22.8497C34.646 22.8444 34.6004 22.8724 34.5223 22.9024C34.4915 22.9071 34.5522 22.8624 34.618 22.8497ZM35.3777 22.792C35.2553 22.8135 35.068 22.8533 35.0066 22.8838C35.125 22.8502 35.3133 22.8155 35.3777 22.792ZM35.1268 22.7071C35.1018 22.7058 34.5691 22.8768 34.6658 22.8311C34.7295 22.7881 35.2646 22.6614 35.1268 22.7071ZM37.1443 22.7432C37.0421 22.6951 37.2813 22.7549 37.3484 22.7969C37.3428 22.8098 37.1627 22.7491 37.1443 22.7432ZM36.657 22.6153C36.7879 22.656 36.4493 22.6419 36.409 22.6065C36.4066 22.5981 36.632 22.6058 36.657 22.6153ZM36.6414 22.5372C36.7456 22.566 36.5099 22.5501 36.4353 22.5381C36.4317 22.5209 36.625 22.5317 36.6414 22.5372ZM36.3328 22.252C36.6865 22.3196 36.3835 22.2942 37.1512 22.378C36.8185 22.3506 37.1243 22.4076 37.0584 22.4131C37.0059 22.4159 36.8168 22.3679 36.9217 22.4209C36.7879 22.3468 36.232 22.3209 36.1941 22.3223H36.1951C36.1791 22.3184 36.2212 22.2368 36.3328 22.252ZM36.6102 22.2579C36.6177 22.2461 36.7411 22.2555 36.8719 22.2793C37.0268 22.306 37.182 22.3531 37.2283 22.3672C37.1986 22.37 37.0348 22.3328 36.8719 22.3086C36.7334 22.2871 36.6042 22.2716 36.6102 22.2579Z" fill="#FF3C3C"/>
</svg>
